# xmcd CD database file
#
# Track frame offsets:
#	150
#	14500
#	27825
#	39300
#	48737
#	66400
#	75687
#	93200
#	101562
#	120737
#	131750
#	140637
#	149437
#	160162
#	174000
#
# Disc length: 2484 seconds
#
# Revision: 0
# Processed by: cddbd v1.4PL0 Copyright (c) Steve Scherf et al.
# Submitted via: CDex 1.50
#
DISCID=cc09b20f
DTITLE=Duo Presto - Duo Presto
DYEAR=1900
DGENRE=Jazz
TTITLE0=Das Ohr lügt nicht
TTITLE1=Gletscherprise
TTITLE2=Wütende Wattwürmer
TTITLE3=Klick-Trick
TTITLE4=Grikou
TTITLE5=Schwoof mit Kekuku
TTITLE6=Muggenflokati
TTITLE7=Aber nu
TTITLE8=Kleine Weise
TTITLE9=Begrenzte Überraschung
TTITLE10=Black Mountain Rag Trad.
TTITLE11=Wo ist James Taylor
TTITLE12=Lieben Sie Burkhard Schneidermann!
TTITLE13=Das soll's
TTITLE14=Claudia
EXTD=
EXTT0=
EXTT1=
EXTT2=
EXTT3=
EXTT4=
EXTT5=
EXTT6=
EXTT7=
EXTT8=
EXTT9=
EXTT10=
EXTT11=
EXTT12=
EXTT13=
EXTT14=
PLAYORDER=
